<mxfile host="app.diagrams.net" modified="2022-03-31T16:37:36.563Z" agent="5.0 (Macintosh; Intel Mac OS X 10_13_6) AppleWebKit/537.36 (KHTML, like Gecko) Chrome/99.0.4844.84 Safari/537.36" etag="Q_hplCIAzVwI_Y2XRHAi" version="15.4.3" type="github">
  <diagram id="C5RBs43oDa-KdzZeNtuy" name="Page-1">
    <mxGraphModel dx="1466" dy="1823" grid="1" gridSize="10" guides="1" tooltips="1" connect="1" arrows="1" fold="1" page="1" pageScale="1" pageWidth="827" pageHeight="1169" math="0" shadow="0">
      <root>
        <mxCell id="WIyWlLk6GJQsqaUBKTNV-0" />
        <mxCell id="WIyWlLk6GJQsqaUBKTNV-1" parent="WIyWlLk6GJQsqaUBKTNV-0" />
        <mxCell id="WIyWlLk6GJQsqaUBKTNV-2" value="" style="rounded=0;html=1;jettySize=auto;orthogonalLoop=1;fontSize=11;endArrow=block;endFill=0;endSize=8;strokeWidth=1;shadow=0;labelBackgroundColor=none;edgeStyle=orthogonalEdgeStyle;startArrow=none;" parent="WIyWlLk6GJQsqaUBKTNV-1" source="6xMqIkiYqQwlnAPgPhAH-16" edge="1">
          <mxGeometry relative="1" as="geometry">
            <mxPoint x="220" y="170" as="targetPoint" />
          </mxGeometry>
        </mxCell>
        <mxCell id="6xMqIkiYqQwlnAPgPhAH-3" value="" style="edgeStyle=orthogonalEdgeStyle;rounded=0;orthogonalLoop=1;jettySize=auto;html=1;" edge="1" parent="WIyWlLk6GJQsqaUBKTNV-1" source="WIyWlLk6GJQsqaUBKTNV-3" target="6xMqIkiYqQwlnAPgPhAH-2">
          <mxGeometry relative="1" as="geometry" />
        </mxCell>
        <mxCell id="WIyWlLk6GJQsqaUBKTNV-3" value="FAZER LANCE" style="rounded=1;whiteSpace=wrap;html=1;fontSize=12;glass=0;strokeWidth=1;shadow=0;" parent="WIyWlLk6GJQsqaUBKTNV-1" vertex="1">
          <mxGeometry x="150" width="120" height="40" as="geometry" />
        </mxCell>
        <mxCell id="6xMqIkiYqQwlnAPgPhAH-1" value="" style="edgeStyle=orthogonalEdgeStyle;rounded=0;orthogonalLoop=1;jettySize=auto;html=1;entryX=0;entryY=0.5;entryDx=0;entryDy=0;" edge="1" parent="WIyWlLk6GJQsqaUBKTNV-1" source="6xMqIkiYqQwlnAPgPhAH-0" target="6xMqIkiYqQwlnAPgPhAH-16">
          <mxGeometry relative="1" as="geometry" />
        </mxCell>
        <mxCell id="6xMqIkiYqQwlnAPgPhAH-0" value="Actor" style="shape=umlActor;verticalLabelPosition=bottom;verticalAlign=top;html=1;outlineConnect=0;" vertex="1" parent="WIyWlLk6GJQsqaUBKTNV-1">
          <mxGeometry x="60" y="50" width="30" height="60" as="geometry" />
        </mxCell>
        <mxCell id="6xMqIkiYqQwlnAPgPhAH-32" value="" style="edgeStyle=orthogonalEdgeStyle;rounded=0;orthogonalLoop=1;jettySize=auto;html=1;fontSize=14;" edge="1" parent="WIyWlLk6GJQsqaUBKTNV-1" source="6xMqIkiYqQwlnAPgPhAH-2">
          <mxGeometry relative="1" as="geometry">
            <mxPoint x="430" y="300" as="targetPoint" />
          </mxGeometry>
        </mxCell>
        <mxCell id="6xMqIkiYqQwlnAPgPhAH-2" value="MAIOR LANCE&amp;nbsp;" style="whiteSpace=wrap;html=1;rounded=1;shadow=0;strokeWidth=1;glass=0;" vertex="1" parent="WIyWlLk6GJQsqaUBKTNV-1">
          <mxGeometry x="330" y="20" width="200" height="190" as="geometry" />
        </mxCell>
        <mxCell id="6xMqIkiYqQwlnAPgPhAH-13" style="edgeStyle=orthogonalEdgeStyle;rounded=0;orthogonalLoop=1;jettySize=auto;html=1;" edge="1" parent="WIyWlLk6GJQsqaUBKTNV-1" source="6xMqIkiYqQwlnAPgPhAH-5">
          <mxGeometry relative="1" as="geometry">
            <mxPoint x="150" y="200" as="targetPoint" />
          </mxGeometry>
        </mxCell>
        <mxCell id="6xMqIkiYqQwlnAPgPhAH-5" value="Actor" style="shape=umlActor;verticalLabelPosition=bottom;verticalAlign=top;html=1;outlineConnect=0;" vertex="1" parent="WIyWlLk6GJQsqaUBKTNV-1">
          <mxGeometry x="60" y="170" width="30" height="60" as="geometry" />
        </mxCell>
        <mxCell id="6xMqIkiYqQwlnAPgPhAH-7" value="" style="edgeStyle=orthogonalEdgeStyle;rounded=0;orthogonalLoop=1;jettySize=auto;html=1;" edge="1" parent="WIyWlLk6GJQsqaUBKTNV-1" source="6xMqIkiYqQwlnAPgPhAH-6" target="6xMqIkiYqQwlnAPgPhAH-2">
          <mxGeometry relative="1" as="geometry">
            <Array as="points">
              <mxPoint x="710" y="115" />
            </Array>
          </mxGeometry>
        </mxCell>
        <mxCell id="6xMqIkiYqQwlnAPgPhAH-39" value="" style="edgeStyle=orthogonalEdgeStyle;rounded=0;orthogonalLoop=1;jettySize=auto;html=1;fontSize=14;" edge="1" parent="WIyWlLk6GJQsqaUBKTNV-1" source="6xMqIkiYqQwlnAPgPhAH-6" target="6xMqIkiYqQwlnAPgPhAH-37">
          <mxGeometry relative="1" as="geometry">
            <Array as="points">
              <mxPoint x="710" y="185" />
              <mxPoint x="685" y="185" />
            </Array>
          </mxGeometry>
        </mxCell>
        <mxCell id="6xMqIkiYqQwlnAPgPhAH-6" value="DONO DO OBJETO" style="shape=umlActor;verticalLabelPosition=bottom;verticalAlign=top;html=1;outlineConnect=0;" vertex="1" parent="WIyWlLk6GJQsqaUBKTNV-1">
          <mxGeometry x="680" y="50" width="60" height="60" as="geometry" />
        </mxCell>
        <mxCell id="6xMqIkiYqQwlnAPgPhAH-12" value="&lt;b&gt;&lt;font style=&quot;font-size: 14px&quot;&gt;LEILÃƒO DE CAVALO&lt;/font&gt;&lt;/b&gt;" style="rounded=0;whiteSpace=wrap;html=1;" vertex="1" parent="WIyWlLk6GJQsqaUBKTNV-1">
          <mxGeometry x="240" y="-70" width="210" height="60" as="geometry" />
        </mxCell>
        <mxCell id="6xMqIkiYqQwlnAPgPhAH-16" value="500,00" style="ellipse;whiteSpace=wrap;html=1;fontSize=14;" vertex="1" parent="WIyWlLk6GJQsqaUBKTNV-1">
          <mxGeometry x="150" y="70" width="100" height="60" as="geometry" />
        </mxCell>
        <mxCell id="6xMqIkiYqQwlnAPgPhAH-17" value="" style="rounded=0;html=1;jettySize=auto;orthogonalLoop=1;fontSize=11;endArrow=none;endFill=0;endSize=8;strokeWidth=1;shadow=0;labelBackgroundColor=none;edgeStyle=orthogonalEdgeStyle;" edge="1" parent="WIyWlLk6GJQsqaUBKTNV-1" source="WIyWlLk6GJQsqaUBKTNV-3" target="6xMqIkiYqQwlnAPgPhAH-16">
          <mxGeometry relative="1" as="geometry">
            <mxPoint x="220" y="60" as="sourcePoint" />
            <mxPoint x="220" y="170" as="targetPoint" />
          </mxGeometry>
        </mxCell>
        <mxCell id="6xMqIkiYqQwlnAPgPhAH-27" value="" style="edgeStyle=orthogonalEdgeStyle;rounded=0;orthogonalLoop=1;jettySize=auto;html=1;fontSize=14;" edge="1" parent="WIyWlLk6GJQsqaUBKTNV-1" source="6xMqIkiYqQwlnAPgPhAH-18" target="6xMqIkiYqQwlnAPgPhAH-2">
          <mxGeometry relative="1" as="geometry" />
        </mxCell>
        <mxCell id="6xMqIkiYqQwlnAPgPhAH-30" value="" style="edgeStyle=orthogonalEdgeStyle;rounded=0;orthogonalLoop=1;jettySize=auto;html=1;fontSize=14;" edge="1" parent="WIyWlLk6GJQsqaUBKTNV-1" source="6xMqIkiYqQwlnAPgPhAH-18" target="6xMqIkiYqQwlnAPgPhAH-23">
          <mxGeometry relative="1" as="geometry" />
        </mxCell>
        <mxCell id="6xMqIkiYqQwlnAPgPhAH-18" value="&lt;u&gt;1.800,00&lt;/u&gt;" style="ellipse;whiteSpace=wrap;html=1;aspect=fixed;fontSize=14;" vertex="1" parent="WIyWlLk6GJQsqaUBKTNV-1">
          <mxGeometry x="150" y="160" width="80" height="80" as="geometry" />
        </mxCell>
        <mxCell id="6xMqIkiYqQwlnAPgPhAH-24" value="" style="edgeStyle=orthogonalEdgeStyle;rounded=0;orthogonalLoop=1;jettySize=auto;html=1;fontSize=14;" edge="1" parent="WIyWlLk6GJQsqaUBKTNV-1" source="6xMqIkiYqQwlnAPgPhAH-20" target="6xMqIkiYqQwlnAPgPhAH-23">
          <mxGeometry relative="1" as="geometry" />
        </mxCell>
        <mxCell id="6xMqIkiYqQwlnAPgPhAH-20" value="Actor" style="shape=umlActor;verticalLabelPosition=bottom;verticalAlign=top;html=1;outlineConnect=0;fontSize=14;" vertex="1" parent="WIyWlLk6GJQsqaUBKTNV-1">
          <mxGeometry x="60" y="280" width="40" height="60" as="geometry" />
        </mxCell>
        <mxCell id="6xMqIkiYqQwlnAPgPhAH-23" value="1.200,00" style="ellipse;whiteSpace=wrap;html=1;fontSize=14;verticalAlign=top;" vertex="1" parent="WIyWlLk6GJQsqaUBKTNV-1">
          <mxGeometry x="140" y="280" width="120" height="60" as="geometry" />
        </mxCell>
        <mxCell id="6xMqIkiYqQwlnAPgPhAH-28" style="edgeStyle=orthogonalEdgeStyle;rounded=0;orthogonalLoop=1;jettySize=auto;html=1;exitX=0.5;exitY=1;exitDx=0;exitDy=0;fontSize=14;" edge="1" parent="WIyWlLk6GJQsqaUBKTNV-1" source="6xMqIkiYqQwlnAPgPhAH-18" target="6xMqIkiYqQwlnAPgPhAH-18">
          <mxGeometry relative="1" as="geometry" />
        </mxCell>
        <mxCell id="6xMqIkiYqQwlnAPgPhAH-29" style="edgeStyle=orthogonalEdgeStyle;rounded=0;orthogonalLoop=1;jettySize=auto;html=1;exitX=0.5;exitY=1;exitDx=0;exitDy=0;fontSize=14;" edge="1" parent="WIyWlLk6GJQsqaUBKTNV-1" source="6xMqIkiYqQwlnAPgPhAH-23" target="6xMqIkiYqQwlnAPgPhAH-23">
          <mxGeometry relative="1" as="geometry" />
        </mxCell>
        <mxCell id="6xMqIkiYqQwlnAPgPhAH-34" value="" style="edgeStyle=orthogonalEdgeStyle;rounded=0;orthogonalLoop=1;jettySize=auto;html=1;fontSize=14;" edge="1" parent="WIyWlLk6GJQsqaUBKTNV-1" source="6xMqIkiYqQwlnAPgPhAH-31" target="6xMqIkiYqQwlnAPgPhAH-33">
          <mxGeometry relative="1" as="geometry" />
        </mxCell>
        <mxCell id="6xMqIkiYqQwlnAPgPhAH-38" value="" style="edgeStyle=orthogonalEdgeStyle;rounded=0;orthogonalLoop=1;jettySize=auto;html=1;fontSize=14;" edge="1" parent="WIyWlLk6GJQsqaUBKTNV-1" source="6xMqIkiYqQwlnAPgPhAH-31" target="6xMqIkiYqQwlnAPgPhAH-37">
          <mxGeometry relative="1" as="geometry" />
        </mxCell>
        <mxCell id="6xMqIkiYqQwlnAPgPhAH-31" value="AVISAR O USUARIO DE MAIOR LANCE" style="whiteSpace=wrap;html=1;rounded=1;shadow=0;strokeWidth=1;glass=0;" vertex="1" parent="WIyWlLk6GJQsqaUBKTNV-1">
          <mxGeometry x="370" y="300" width="120" height="60" as="geometry" />
        </mxCell>
        <mxCell id="6xMqIkiYqQwlnAPgPhAH-36" value="" style="edgeStyle=orthogonalEdgeStyle;rounded=0;orthogonalLoop=1;jettySize=auto;html=1;fontSize=14;entryX=0;entryY=0.5;entryDx=0;entryDy=0;" edge="1" parent="WIyWlLk6GJQsqaUBKTNV-1" source="6xMqIkiYqQwlnAPgPhAH-33" target="6xMqIkiYqQwlnAPgPhAH-40">
          <mxGeometry relative="1" as="geometry">
            <mxPoint x="570" y="525" as="targetPoint" />
          </mxGeometry>
        </mxCell>
        <mxCell id="6xMqIkiYqQwlnAPgPhAH-33" value="PAGAMENTO DÃ‰BITO" style="ellipse;whiteSpace=wrap;html=1;rounded=1;shadow=0;strokeWidth=1;glass=0;" vertex="1" parent="WIyWlLk6GJQsqaUBKTNV-1">
          <mxGeometry x="370" y="390" width="120" height="60" as="geometry" />
        </mxCell>
        <mxCell id="6xMqIkiYqQwlnAPgPhAH-41" value="" style="edgeStyle=orthogonalEdgeStyle;rounded=0;orthogonalLoop=1;jettySize=auto;html=1;fontSize=14;" edge="1" parent="WIyWlLk6GJQsqaUBKTNV-1" source="6xMqIkiYqQwlnAPgPhAH-37" target="6xMqIkiYqQwlnAPgPhAH-40">
          <mxGeometry relative="1" as="geometry" />
        </mxCell>
        <mxCell id="6xMqIkiYqQwlnAPgPhAH-37" value="DADOS DO VENCEDOR&amp;nbsp;&lt;br&gt;PARA ENTREGA" style="rhombus;whiteSpace=wrap;html=1;rounded=1;shadow=0;strokeWidth=1;glass=0;" vertex="1" parent="WIyWlLk6GJQsqaUBKTNV-1">
          <mxGeometry x="590" y="240" width="190" height="130" as="geometry" />
        </mxCell>
        <mxCell id="6xMqIkiYqQwlnAPgPhAH-40" value="DATA DA ENTREGA" style="rhombus;whiteSpace=wrap;html=1;rounded=1;shadow=0;strokeWidth=1;glass=0;" vertex="1" parent="WIyWlLk6GJQsqaUBKTNV-1">
          <mxGeometry x="612.5" y="420" width="145" height="105" as="geometry" />
        </mxCell>
        <mxCell id="6xMqIkiYqQwlnAPgPhAH-43" value="" style="rhombus;whiteSpace=wrap;html=1;strokeWidth=2;fillWeight=-1;hachureGap=8;fillStyle=cross-hatch;fillColor=#006600;sketch=1;fontSize=14;" vertex="1" parent="WIyWlLk6GJQsqaUBKTNV-1">
          <mxGeometry x="440" y="560" width="120" height="60" as="geometry" />
        </mxCell>
        <mxCell id="6xMqIkiYqQwlnAPgPhAH-44" style="edgeStyle=orthogonalEdgeStyle;rounded=0;orthogonalLoop=1;jettySize=auto;html=1;exitX=0.5;exitY=1;exitDx=0;exitDy=0;fontSize=14;shadow=0;" edge="1" parent="WIyWlLk6GJQsqaUBKTNV-1" source="6xMqIkiYqQwlnAPgPhAH-40" target="6xMqIkiYqQwlnAPgPhAH-45">
          <mxGeometry relative="1" as="geometry">
            <mxPoint x="685" y="570" as="targetPoint" />
          </mxGeometry>
        </mxCell>
        <mxCell id="6xMqIkiYqQwlnAPgPhAH-46" value="" style="edgeStyle=orthogonalEdgeStyle;rounded=0;orthogonalLoop=1;jettySize=auto;html=1;shadow=0;fontSize=14;" edge="1" parent="WIyWlLk6GJQsqaUBKTNV-1" source="6xMqIkiYqQwlnAPgPhAH-45" target="6xMqIkiYqQwlnAPgPhAH-43">
          <mxGeometry relative="1" as="geometry" />
        </mxCell>
        <mxCell id="6xMqIkiYqQwlnAPgPhAH-45" value="DOCUMENTO DE CONFIRMAÃ‡ÃƒO DE ENREGA" style="shape=note;whiteSpace=wrap;html=1;backgroundOutline=1;darkOpacity=0.05;fontSize=14;" vertex="1" parent="WIyWlLk6GJQsqaUBKTNV-1">
          <mxGeometry x="645" y="540" width="165" height="100" as="geometry" />
        </mxCell>
      </root>
    </mxGraphModel>
  </diagram>
</mxfile>
